# xmcd
#
# Track frame offsets:
#	150
#	16557
#	31415
#	48795
#	67782
#	86517
#	102062
#	119065
#	135287
#	153645
#	168030
#	185975
#	201317
#
# Disc length: 2914 seconds
#
# Revision: 10
# Processed by: cddbd v1.5.2PL0 Copyright (c) Steve Scherf et al.
# Submitted via: EasyCDDAExtractor 15.3.0.1
#
DISCID=9f0b600d
DTITLE=Marc Anthony - Mended
DYEAR=2002
DGENRE=Pop
TTITLE0=Love Won't Get Any Better
TTITLE1=She Mends Me
TTITLE2=I've Got You
TTITLE3=I Need You
TTITLE4=Tragedy
TTITLE5=I Reach For You
TTITLE6=I Swear
TTITLE7=Don't Tell Me It's Love
TTITLE8=Do You Believe In Loneliness
TTITLE9=Give Me A Reason
TTITLE10=I Wanna Be Free
TTITLE11=Everything You Do
TTITLE12=Te Tengo Aqui
EXTD=
EXTT0=
EXTT1=
EXTT2=
EXTT3=
EXTT4=
EXTT5=
EXTT6=
EXTT7=
EXTT8=
EXTT9=
EXTT10=
EXTT11=
EXTT12=
PLAYORDER=
